<svg xmlns="http://www.w3.org/2000/svg" width="266.087" height="160.452" viewBox="0 0 266.087 160.452">
  <g id="Layer_2" data-name="Layer 2" transform="translate(-0.003 -0.036)">
    <g id="Layer_1" data-name="Layer 1" transform="translate(0.003 0.036)">
      <path id="Path_103" data-name="Path 103" d="M17.817,102.532.447,59.727a6.1,6.1,0,0,1,3.4-7.953l39.4-15.987A6.1,6.1,0,0,1,51.2,39.154l3.712,9.214-5.39,2.186L45.795,41.34a.336.336,0,0,0-.4-.173l-39.388,16a.254.254,0,0,0-.173.163.264.264,0,0,0,0,.214l17.36,42.8Z" transform="translate(-0.003 0.302)" fill="#01504d"/>
      <path id="Path_104" data-name="Path 104" d="M34.234,88.115l-6.1-30.784a6.1,6.1,0,0,1,4.78-7.19l41.7-8.309a6.183,6.183,0,0,1,4.607.925,6.031,6.031,0,0,1,2.6,3.926l6.234,31.4-5.705,1.129L76.113,47.791a.285.285,0,0,0-.132-.2.315.315,0,0,0-.264,0L34.1,55.836a.234.234,0,0,0-.183.122.3.3,0,0,0-.051.224l6.1,30.794Z" transform="translate(0.472 0.42)" fill="#01504d"/>
      <path id="Path_105" data-name="Path 105" d="M114.3,123.552c-.142-.946-.2-1.22-.356-2.034L110.506,108.4a2.319,2.319,0,0,0-4.5,0l-3.417,13.119v.234a6.61,6.61,0,0,0,1.434,6C107.994,131.922,115.031,128.363,114.3,123.552Zm-5.817,2.573a2.6,2.6,0,1,1,1.847-.759A2.614,2.614,0,0,1,108.482,126.125Z" transform="translate(1.274 1.239)" fill="#01504d"/>
      <path id="Path_106" data-name="Path 106" d="M81,18.519a2.349,2.349,0,0,1-2.288-1.881,14.9,14.9,0,0,0-29.208,0,2.341,2.341,0,0,1-4.587-.936,19.587,19.587,0,0,1,38.381,0,2.339,2.339,0,0,1-1.831,2.756A2.532,2.532,0,0,1,81,18.519Z" transform="translate(0.533 -0.036)" fill="#01504d"/>
      <path id="Path_107" data-name="Path 107" d="M10.32,76.432,8.907,67a8.155,8.155,0,0,1,0-.87l-5.8-.465v76.971a17.52,17.52,0,0,0,17.563,17.477h88.3a17.54,17.54,0,0,0,17.584-17.5V67A44.914,44.914,0,0,0,81.509,22.19h-33.4A45.008,45.008,0,0,0,5.642,52.165l5.492,1.9A39.193,39.193,0,0,1,48.111,27.979H81.519a39.108,39.108,0,0,1,39.2,39.012v75.645a11.717,11.717,0,0,1-11.746,11.688h-88.3A11.768,11.768,0,0,1,8.907,142.615V126.14l.4-1.012V125c.142-.385.285-.759.437-1.133l.356-.911c.081-.192.163-.395.254-.6l.071-.152c.132-.334.275-.678.427-1.012l.458-1.012.285-.587h0c.173-.364.356-.739.549-1.1l.081-.162c.081-.192.183-.385.275-.567l.122-.243c.356-.7.722-1.386,1.129-2.085l.549-.941c.142-.243.275-.476.427-.7l.092-.162c.214-.374.447-.759.732-1.194.539-.88,1.159-1.8,1.932-2.874a3.99,3.99,0,0,1,.336-.455,3.454,3.454,0,0,0,.214-.3l.092-.121c.122-.182.254-.364.417-.567l.2-.253c.834-1.123,1.688-2.186,2.542-3.157l.275-.283.061-.132.346-.374.366-.395.183-.213.224-.253A67.342,67.342,0,0,1,72.57,81.138h1.3a81.877,81.877,0,0,1,11.3.435h.2a49.7,49.7,0,0,1,16.272,5.465l.529.283L100.669,83a36.942,36.942,0,0,0-4.007-8.258,24.792,24.792,0,0,0-4.9-5.556,26.45,26.45,0,0,0-7.312-4.9l-2.319,5.272c.631.273,1.251.587,1.881.931l1.017,5.181a99.434,99.434,0,0,0-11.187-.354H72.61A73.076,73.076,0,0,0,19.117,98.442L13.656,84.619l-2.848-6.406Z" transform="translate(0.049 0.34)" fill="#01504d"/>
      <rect id="Rectangle_100" data-name="Rectangle 100" width="5.035" height="1.951" transform="translate(104.174 89.587) rotate(-15.005)" fill="#01504d"/>
      <rect id="Rectangle_101" data-name="Rectangle 101" width="5.014" height="1.942" transform="translate(101.232 93.689) rotate(-14.86)" fill="#01504d"/>
      <rect id="Rectangle_102" data-name="Rectangle 102" width="5.014" height="1.942" transform="translate(105.193 96.028) rotate(-14.86)" fill="#01504d"/>
      <rect id="Rectangle_103" data-name="Rectangle 103" width="5.014" height="1.942" transform="translate(103.018 100.37) rotate(-14.86)" fill="#01504d"/>
      <rect id="Rectangle_104" data-name="Rectangle 104" width="5.014" height="1.942" transform="translate(106.97 102.712) rotate(-14.86)" fill="#01504d"/>
      <path id="Path_108" data-name="Path 108" d="M151.413,39.9c5.746,0,9.356.742,12.305,3.478a11.472,11.472,0,0,1,3.539,8.827,9.722,9.722,0,0,1-1.332,5.278,7.414,7.414,0,0,1-3.346,3.051,12.2,12.2,0,0,1,5.746,3.2,11.614,11.614,0,0,1,2.949,8.36,10.851,10.851,0,0,1-2.949,8.024c-3.539,3.742-9.092,4.343-12.5,4.343H144.64V39.9Zm.071,19.19h2.034c1.678,0,3.946-.2,5.553-1.739a6.752,6.752,0,0,0,1.739-5.085A5.512,5.512,0,0,0,159.244,48c-1.536-1.475-3.478-1.678-5.41-1.678h-2.339Zm0,18.987h4.139c1.942,0,5.014-.336,6.753-1.739a6.366,6.366,0,0,0,2.207-4.943,6.692,6.692,0,0,0-1.8-4.678c-1.871-1.81-4.617-2.034-7.027-2.034h-4.271Z" transform="translate(1.761 0.403)" fill="#01504d"/>
      <path id="Path_109" data-name="Path 109" d="M203.412,70.248a15.051,15.051,0,0,1-30.092,0c0-8.7,6.549-14.848,15.041-14.848S203.412,61.5,203.412,70.248Zm-6.692.061c0-6.417-4.21-9.021-8.36-9.021s-8.36,2.6-8.36,9.021c0,5.42,3.214,8.96,8.36,8.96s8.36-3.59,8.36-9.021Z" transform="translate(2.099 0.612)" fill="#01504d"/>
      <path id="Path_110" data-name="Path 110" d="M234.962,70.248a15.041,15.041,0,1,1-30.082,0c0-8.7,6.549-14.848,15.041-14.848S234.962,61.5,234.962,70.248Zm-6.682.061c0-6.417-4.21-9.021-8.36-9.021s-8.36,2.6-8.36,9.021c0,5.42,3.214,8.96,8.36,8.96s8.36-3.59,8.36-9.021Z" transform="translate(2.344 0.611)" fill="#01504d"/>
      <path id="Path_111" data-name="Path 111" d="M244.429,35.83V65.851l9.153-9.427h8.685l-12.061,11.7,12.977,16.445h-8.288l-9.265-12.031-1.2,1.2V84.564H237.88V35.83Z" transform="translate(2.905 0.351)" fill="#01504d"/>
      <path id="Path_112" data-name="Path 112" d="M151.413,92c5.746,0,9.356.732,12.305,3.478a11.452,11.452,0,0,1,3.539,8.817,9.752,9.752,0,0,1-1.332,5.288,7.374,7.374,0,0,1-3.346,3.051,12.2,12.2,0,0,1,5.746,3.214,11.6,11.6,0,0,1,2.949,8.36,10.871,10.871,0,0,1-2.949,8.024c-3.539,3.742-9.092,4.343-12.5,4.343H144.64V92Zm.071,19.19h2.034c1.678,0,3.946-.2,5.553-1.739a6.794,6.794,0,0,0,1.739-5.085,5.532,5.532,0,0,0-1.566-4.231c-1.536-1.464-3.478-1.668-5.41-1.668h-2.339Zm0,18.987h4.139c1.942,0,5.014-.336,6.753-1.739a6.377,6.377,0,0,0,2.207-4.953,6.722,6.722,0,0,0-1.8-4.678c-1.871-1.8-4.617-2.034-7.027-2.034h-4.271Z" transform="translate(1.761 0.843)" fill="#01504d"/>
      <path id="Path_113" data-name="Path 113" d="M195.368,108.2h6.549v28.15h-6.549v-2.919a10.841,10.841,0,0,1-8.431,3.8c-8.685,0-13.638-7.221-13.638-14.97,0-9.153,6.285-14.777,13.709-14.777a10.251,10.251,0,0,1,8.36,4.007Zm-15.387,14.177c0,4.882,3.051,8.96,7.831,8.96,4.139,0,7.953-3.051,7.953-8.9,0-6.1-3.814-9.092-7.953-9.092-4.729,0-7.81,4.017-7.81,9.031Z" transform="translate(2.104 1.106)" fill="#01504d"/>
      <path id="Path_114" data-name="Path 114" d="M226.939,108.2h6.539v25.872c0,6.62-.732,11.37-4.607,14.645a14.3,14.3,0,0,1-9.366,3.051,12.438,12.438,0,0,1-9.224-3.478,15.814,15.814,0,0,1-4.139-8.756h6.346a9.264,9.264,0,0,0,2.034,4.414,6.733,6.733,0,0,0,5.085,1.932,7.038,7.038,0,0,0,5.146-1.871c2.136-2.034,2.136-5.014,2.136-7.119V133.22a10.17,10.17,0,0,1-8.553,4.007,11.94,11.94,0,0,1-9.265-3.793,15.906,15.906,0,0,1-4.21-11.187,14.94,14.94,0,0,1,4.21-10.9,12.784,12.784,0,0,1,9.56-3.875,10.587,10.587,0,0,1,8.36,3.8Zm-12.5,7.017a9.783,9.783,0,0,0-2.878,7.119,9.672,9.672,0,0,0,2.807,7.119,7.689,7.689,0,0,0,5.014,1.871,7.119,7.119,0,0,0,5.482-2.278,10.393,10.393,0,0,0-.193-13.7,6.976,6.976,0,0,0-5.288-2.034,6.773,6.773,0,0,0-4.943,1.9Z" transform="translate(2.344 1.106)" fill="#01504d"/>
    </g>
  </g>
</svg>
