<?xml version="1.0" standalone="no"?>
<!DOCTYPE svg PUBLIC "-//W3C//DTD SVG 20010904//EN"
 "http://www.w3.org/TR/2001/REC-SVG-20010904/DTD/svg10.dtd">
<svg version="1.0" xmlns="http://www.w3.org/2000/svg"
 width="1064.000000pt" height="1064.000000pt" viewBox="0 0 1064.000000 1064.000000"
 preserveAspectRatio="xMidYMid meet">
<metadata>
Created by potrace 1.14, written by Peter Selinger 2001-2017
</metadata>
<g transform="translate(0.000000,1064.000000) scale(0.100000,-0.100000)"
fill="#000000" stroke="none">
<path d="M2395 8505 c-180 -47 -305 -129 -428 -279 -86 -105 -162 -296 -145
-362 22 -86 131 -94 174 -13 8 16 12 29 10 29 -13 0 41 129 87 205 23 38 133
142 179 169 145 84 290 108 453 72 40 -9 120 -38 135 -50 8 -7 29 -18 45 -26
17 -8 62 -46 100 -85 82 -81 139 -186 161 -293 5 -25 35 -63 59 -74 40 -18 99
5 116 45 8 17 14 37 14 42 1 13 -23 104 -35 130 -5 11 -18 41 -28 67 -27 64
-90 153 -151 215 -190 194 -483 276 -746 208z"/>
<path d="M1779 7626 c-3 -4 -80 -14 -159 -22 -14 -1 -25 -3 -25 -4 0 -2 -15
-5 -55 -13 -161 -31 -425 -137 -546 -219 -23 -15 -45 -28 -48 -28 -4 0 -12 -5
-19 -10 -7 -6 -43 -34 -82 -62 -93 -69 -235 -201 -285 -265 -8 -10 -31 -39
-51 -63 -30 -38 -102 -144 -146 -215 -21 -35 -103 -203 -103 -213 0 -15 -33
-39 -71 -51 -59 -19 -113 -60 -149 -113 -29 -42 -34 -58 -36 -116 -2 -66 16
-122 111 -347 5 -11 9 -722 10 -1580 1 -1255 4 -1574 15 -1630 15 -78 62 -190
111 -262 33 -49 165 -183 180 -183 4 0 24 -11 43 -23 19 -13 63 -34 98 -46 34
-13 70 -25 78 -28 8 -3 24 -8 35 -11 41 -11 3749 -11 3805 -1 226 43 443 220
520 425 55 148 52 58 52 1769 0 1438 -2 1642 -17 1770 -5 45 -32 174 -46 220
-22 76 -53 162 -66 188 -7 15 -11 27 -8 27 6 0 -111 234 -127 255 -5 6 -33 46
-64 90 -221 315 -531 546 -899 670 -60 21 -121 39 -135 40 -14 2 -40 8 -58 14
-18 5 -35 10 -37 10 -3 1 -6 1 -7 2 -2 0 -16 2 -33 4 -16 2 -52 7 -80 11 -49
8 -1698 17 -1706 10z m1671 -239 c14 -2 43 -7 65 -11 55 -9 83 -14 103 -20 9
-3 28 -7 42 -10 91 -15 340 -124 442 -192 27 -19 54 -34 58 -34 5 0 10 -3 12
-7 2 -5 36 -35 77 -67 293 -234 507 -602 557 -956 3 -19 9 -57 14 -85 12 -70
12 -3228 -1 -3285 -5 -25 -11 -50 -12 -55 -10 -40 -70 -136 -112 -179 -45 -46
-128 -104 -159 -111 -6 -1 -18 -5 -26 -8 -8 -4 -34 -11 -57 -16 -58 -12 -3661
-12 -3716 1 -23 5 -51 11 -61 14 -40 8 -156 86 -196 131 -62 71 -120 200 -119
268 0 11 -1 174 -2 363 -1 337 0 354 32 427 5 11 17 43 28 70 38 98 178 366
201 385 4 3 9 12 12 21 7 18 175 243 223 299 73 85 287 291 365 351 264 205
516 343 808 443 90 31 259 77 332 91 14 3 36 7 50 10 33 6 75 13 130 20 25 3
61 8 80 12 57 9 650 12 715 3 33 -5 80 -11 105 -13 36 -5 117 -21 195 -41 8
-2 89 -27 135 -41 3 -1 14 -5 25 -10 11 -4 52 -20 90 -35 39 -15 100 -43 137
-63 l67 -36 -45 127 c-90 255 -184 415 -324 552 -93 91 -137 130 -146 130 -3
0 -21 12 -40 26 -19 15 -49 35 -67 44 -34 19 -34 16 -87 295 -12 61 -23 121
-26 135 -3 14 -7 32 -9 40 -2 8 -7 31 -10 50 -3 19 -12 67 -20 105 -8 39 -17
84 -20 100 -9 46 -10 47 -29 88 -38 78 -133 132 -224 129 -42 -2 -55 -4 -112
-17 -14 -3 -36 -7 -50 -10 -39 -8 -71 -14 -126 -25 -28 -6 -64 -13 -80 -16
-16 -3 -37 -7 -47 -10 -10 -3 -30 -7 -45 -9 -15 -2 -52 -9 -82 -15 -30 -6 -66
-14 -80 -16 -13 -3 -56 -12 -95 -20 -38 -8 -88 -17 -109 -20 -22 -3 -44 -6
-48 -7 -5 -1 -34 59 -64 133 -74 185 -79 193 -121 230 -49 44 -95 61 -159 61
-56 0 -105 -16 -316 -105 -58 -24 -109 -42 -112 -39 -3 4 -6 2 -6 -4 0 -6 -12
-14 -27 -18 -15 -3 -45 -15 -68 -24 -22 -10 -69 -30 -105 -44 -36 -14 -83 -34
-105 -43 -22 -10 -45 -19 -51 -20 -6 -1 -27 -9 -45 -17 -19 -9 -74 -32 -124
-52 -49 -19 -99 -40 -110 -45 -60 -27 -177 -72 -180 -69 -3 3 67 113 92 144
107 133 178 207 278 286 99 78 150 111 246 162 114 59 290 127 369 141 14 2
45 9 70 14 25 6 77 14 115 17 39 4 71 8 72 9 5 5 1610 -2 1633 -7z m-1595
-584 c32 -81 54 -132 65 -155 10 -19 -21 -35 -85 -43 -22 -2 -83 -14 -135 -26
-52 -11 -110 -23 -129 -25 -19 -3 -55 -9 -80 -15 -25 -6 -57 -13 -71 -15 -117
-20 -177 -47 -226 -103 -36 -40 -57 -114 -51 -175 6 -55 7 -63 31 -181 9 -44
18 -91 21 -105 8 -42 19 -95 20 -100 1 -3 5 -23 9 -45 5 -22 30 -150 56 -285
27 -135 51 -256 53 -270 3 -14 12 -59 21 -100 9 -41 16 -78 16 -81 0 -3 -39
-32 -87 -64 -47 -31 -91 -61 -97 -66 -6 -5 -56 -44 -111 -88 -55 -43 -124
-102 -153 -130 -30 -28 -57 -51 -61 -51 -3 0 -27 53 -53 118 -26 64 -78 194
-116 287 -38 94 -107 262 -152 375 -45 113 -90 223 -100 245 -10 22 -30 72
-44 110 -15 39 -34 84 -42 102 -8 17 -14 33 -14 36 0 2 -8 22 -17 43 -9 22
-17 42 -17 46 -1 3 -4 10 -8 14 -5 4 -8 16 -8 26 0 10 -4 18 -10 18 -5 0 -9 3
-8 8 0 4 -2 16 -7 27 -36 90 -35 84 -12 100 12 8 25 15 29 15 3 0 19 5 35 12
15 6 30 12 33 13 3 1 16 6 30 12 14 6 50 21 80 32 30 12 64 26 75 31 67 30
138 59 165 65 3 1 16 7 30 13 40 18 155 65 285 116 66 26 127 51 136 56 9 4
92 38 185 75 93 37 173 71 179 76 5 5 15 9 21 9 7 0 23 4 36 10 13 5 70 29
128 54 58 24 110 45 116 45 7 1 24 -29 39 -66z m1211 -213 c2 -17 11 -64 19
-100 2 -14 7 -36 9 -50 2 -14 16 -81 30 -150 14 -69 27 -136 30 -150 2 -14 11
-59 20 -100 8 -41 17 -86 20 -100 13 -70 27 -138 32 -160 3 -14 7 -38 10 -55
3 -16 11 -59 19 -95 8 -36 16 -79 19 -96 l6 -32 -243 1 c-262 0 -417 -8 -547
-29 -19 -3 -46 -7 -60 -9 -124 -13 -487 -114 -615 -170 -16 -8 -52 -23 -80
-35 -27 -12 -71 -33 -97 -46 -27 -13 -48 -22 -49 -21 -4 11 -41 185 -44 207
-2 14 -11 56 -20 95 -8 38 -18 83 -20 99 -2 17 -9 56 -15 86 -7 30 -14 68 -16
84 -2 16 -8 45 -14 65 -5 20 -12 52 -15 71 -3 19 -21 108 -38 198 -18 89 -30
167 -27 172 4 6 20 13 36 15 16 3 40 8 54 11 14 3 34 8 45 10 54 9 73 13 115
23 25 5 61 12 80 16 19 3 49 8 65 12 17 3 37 7 45 8 8 2 29 5 45 9 17 3 40 8
53 10 13 3 31 7 40 10 9 3 33 8 52 10 19 3 46 7 60 10 88 19 138 29 155 32 11
1 56 10 100 19 44 10 89 18 100 20 11 2 54 10 95 19 41 8 86 17 100 20 14 3
52 10 85 17 33 6 69 13 80 15 11 1 20 3 20 4 0 2 14 5 95 20 36 7 76 14 90 17
13 2 26 6 28 7 9 10 45 -1 48 -14z"/>
<path d="M4265 4972 c-49 -13 -91 -25 -93 -27 -2 -2 0 -19 3 -38 8 -39 7 -39
99 -13 28 7 63 17 79 20 24 6 26 10 21 34 -12 49 -14 50 -109 24z"/>
<path d="M4135 4805 c-38 -13 -74 -20 -79 -18 -10 6 3 -58 14 -70 4 -5 34 -1
66 8 33 9 70 18 84 21 35 7 41 15 32 49 -10 37 -26 38 -117 10z"/>
<path d="M4340 4724 c-25 -7 -64 -18 -87 -24 -45 -11 -50 -21 -34 -64 l10 -24
63 19 c35 10 64 19 65 19 50 8 63 14 59 27 -4 8 -6 23 -6 33 0 25 -18 29 -70
14z"/>
<path d="M4297 4564 c-4 -5 -18 -9 -30 -11 -12 -2 -49 -11 -82 -22 -53 -16
-60 -20 -57 -42 4 -44 8 -47 49 -38 126 27 145 33 150 46 7 18 -20 77 -30 67z"/>
<path d="M4370 4446 c-66 -17 -85 -26 -84 -39 3 -60 1 -58 46 -52 24 4 46 9
50 11 4 3 18 7 30 10 13 3 28 6 33 7 34 8 46 24 36 49 -5 14 -7 29 -4 32 10
10 -17 5 -107 -18z"/>
<path d="M4354 4208 c-18 -4 -38 -18 -47 -31 -13 -20 -48 -135 -63 -207 -3
-14 -10 -43 -16 -65 -16 -57 -16 -58 -22 -82 -2 -12 -15 -57 -27 -100 -38
-136 -41 -218 -11 -285 56 -128 194 -177 322 -116 34 17 71 44 86 63 27 35 53
109 49 135 -2 8 -6 29 -9 45 -3 17 -8 44 -11 60 -3 17 -15 63 -26 103 -11 40
-22 81 -24 90 -3 13 -50 194 -70 267 -1 6 -6 25 -10 42 -8 35 -45 78 -73 85
-9 3 -31 1 -48 -4z m93 -588 c57 -34 61 -111 8 -160 -23 -22 -71 -33 -90 -22
-5 4 -12 7 -15 7 -18 1 -49 36 -57 65 -12 44 -1 78 35 107 33 28 77 29 119 3z"/>
<path d="M9638 7079 c-7 -4 -10 -320 -10 -940 1 -514 1 -951 1 -971 l1 -38
130 0 130 0 0 218 0 219 25 23 c14 13 26 22 28 19 2 -2 24 -31 48 -64 24 -33
46 -62 49 -65 3 -3 42 -52 85 -110 44 -58 82 -107 85 -110 3 -3 27 -33 53 -67
l47 -62 160 0 c88 0 160 3 160 7 0 6 -141 189 -233 303 -15 19 -31 39 -35 44
-38 50 -78 101 -82 105 -3 3 -21 25 -40 50 -50 64 -62 79 -92 114 l-27 32 28
30 c15 16 121 119 234 229 114 109 207 202 207 206 0 3 -75 7 -166 8 l-166 1
-91 -94 c-51 -52 -134 -137 -184 -189 l-93 -96 0 600 c0 329 -3 599 -7 600
-46 4 -237 2 -245 -2z"/>
<path d="M5859 6917 c-1 -1 -3 -401 -3 -889 -1 -609 1 -889 9 -891 5 -2 138
-3 295 -1 316 2 368 10 502 73 60 29 138 93 178 146 22 30 57 105 69 149 12
46 8 237 -7 281 -43 136 -142 239 -275 289 l-47 18 38 28 c21 15 49 41 60 56
12 16 27 35 32 42 6 6 8 12 4 12 -3 0 -2 6 4 13 36 44 51 210 27 310 -12 50
-39 117 -60 146 -33 47 -128 130 -175 153 -50 24 -77 33 -175 53 -26 6 -473
17 -476 12z m491 -274 c64 -22 98 -51 127 -110 23 -47 25 -62 21 -131 -7 -130
-68 -212 -173 -239 -65 -16 -195 -17 -195 -1 -1 22 -1 338 -1 421 l1 78 88 -2
c49 -1 108 -8 132 -16z m83 -727 c48 -8 121 -47 154 -84 67 -74 82 -193 37
-288 -52 -110 -130 -144 -346 -151 l-148 -5 -1 38 c-2 193 1 485 5 492 5 9
242 7 299 -2z"/>
<path d="M7495 6280 c-40 -15 -140 -44 -147 -42 -5 1 -8 -2 -8 -8 0 -5 -5 -10
-11 -10 -20 0 -105 -63 -159 -120 -62 -64 -112 -157 -136 -252 -16 -61 -25
-238 -13 -238 4 0 9 -18 12 -41 3 -22 23 -78 46 -125 51 -107 152 -212 258
-267 40 -21 75 -38 78 -38 2 0 10 -1 17 -3 77 -22 110 -25 204 -22 80 2 126 9
171 25 71 26 167 82 215 127 41 38 100 110 98 120 -1 4 2 10 7 13 18 12 61
117 75 181 18 82 16 196 -6 280 -51 196 -228 368 -422 411 -60 13 -251 19
-279 9z m267 -258 c57 -25 148 -114 148 -145 0 -7 4 -17 9 -22 15 -15 23 -62
27 -147 9 -222 -120 -369 -324 -371 -147 -2 -263 72 -312 198 -24 63 -32 193
-17 265 44 202 271 310 469 222z"/>
<path d="M8790 6283 c-97 -15 -183 -51 -265 -109 -109 -76 -177 -177 -221
-324 -38 -129 -4 -369 65 -452 8 -10 11 -18 7 -18 -11 0 72 -98 113 -135 154
-137 372 -185 574 -125 42 13 77 28 77 33 0 6 3 8 6 4 7 -7 100 50 145 90 75
66 154 196 175 286 1 4 2 8 4 10 20 24 18 245 -4 320 -51 180 -159 302 -339
381 -31 14 -57 24 -57 22 0 -3 -15 0 -32 5 -34 11 -204 19 -248 12z m243 -261
c73 -33 141 -107 165 -182 32 -98 31 -171 -1 -295 -15 -56 -66 -121 -127 -161
-85 -56 -227 -64 -332 -19 -115 51 -189 189 -183 342 8 190 113 321 274 340
25 3 47 6 48 8 9 7 118 -16 156 -33z"/>
<path d="M5856 4811 c-1 -4 -2 -404 -2 -891 l1 -885 295 1 c266 0 303 2 375
21 201 52 326 160 375 323 25 84 21 252 -8 328 -31 79 -80 149 -131 188 -25
18 -51 38 -58 44 -7 5 -17 10 -23 10 -6 0 -18 4 -28 10 -9 5 -30 15 -46 20
l-30 11 30 18 c59 36 105 101 140 196 13 37 12 194 -2 248 -16 62 -54 147 -66
147 -4 0 -8 5 -8 11 0 19 -85 96 -141 128 -55 31 -137 56 -219 67 -57 8 -450
12 -454 5z m486 -267 c7 -5 19 -9 27 -11 26 -4 83 -58 107 -103 21 -39 24 -56
21 -125 -7 -177 -89 -249 -294 -257 l-73 -3 -1 57 c0 32 0 83 0 113 0 30 0
120 0 199 l1 144 100 -3 c55 -2 105 -7 112 -11z m76 -728 c92 -15 178 -72 205
-136 20 -48 21 -55 21 -130 0 -58 -5 -85 -22 -116 -22 -42 -91 -110 -114 -112
-7 0 -40 -8 -73 -16 -60 -16 -289 -26 -301 -13 -12 11 -7 519 5 527 14 8 220
5 279 -4z"/>
<path d="M7507 4184 c-2 -2 -22 -6 -44 -9 -141 -18 -293 -124 -367 -258 -56
-101 -79 -193 -79 -316 0 -58 3 -119 6 -134 17 -79 66 -207 80 -207 4 0 7 -5
7 -10 0 -17 41 -69 90 -117 41 -39 180 -123 180 -108 0 3 9 1 21 -5 11 -7 35
-14 52 -17 34 -6 182 -6 207 0 60 15 151 62 194 101 20 19 37 33 37 32 1 0 2
-23 3 -51 l1 -50 132 -3 131 -3 0 553 c-1 304 -3 558 -5 563 -4 13 -245 16
-254 3 -3 -5 -5 -34 -4 -64 l2 -56 -41 39 c-22 21 -43 41 -46 44 -10 12 -116
57 -150 64 -39 9 -147 15 -153 9z m225 -267 c67 -33 111 -80 147 -157 23 -49
26 -67 26 -170 0 -98 -4 -122 -23 -164 -83 -181 -285 -248 -447 -149 -180 111
-203 447 -41 595 88 81 226 100 338 45z"/>
<path d="M8699 4169 c-99 -25 -167 -65 -244 -143 -108 -110 -163 -239 -169
-397 -12 -352 203 -620 506 -633 139 -6 240 28 328 110 l47 44 -2 -138 c-1
-81 -7 -148 -14 -160 -6 -12 -9 -22 -7 -22 12 0 -36 -78 -62 -102 -50 -48
-109 -71 -194 -76 -48 -3 -89 0 -104 7 -13 6 -36 16 -50 23 -57 27 -104 91
-133 181 -7 20 -18 37 -24 38 -7 1 -63 2 -125 3 l-113 1 5 -40 c12 -98 84
-234 165 -315 97 -97 222 -141 386 -136 251 8 436 141 498 357 29 98 30 140
34 764 l4 621 -131 0 -130 0 0 -59 0 -59 -47 42 c-49 43 -123 82 -183 95 -61
14 -175 11 -241 -6z m271 -234 c101 -34 181 -138 205 -269 15 -76 10 -131 -16
-208 -45 -135 -134 -212 -259 -225 -49 -5 -160 15 -160 28 0 5 -7 9 -15 9 -8
0 -31 14 -51 32 -75 66 -116 162 -118 278 -4 152 65 279 184 343 57 30 159 36
230 12z"/>
</g>
</svg>
